HIERARCHY
ROOT SpineBase
{
  OFFSET 0.000000 0.000000 0.000000
  CHANNELS 6 Xposition Yposition Zposition Zrotation Xrotation Yrotation
  JOINT SpineMid
  {
    OFFSET 0.000000 32.588186 0.000000
    CHANNELS 3 Zrotation Xrotation Yrotation
    JOINT SpineShoulder
    {
      OFFSET -0.176323 24.189188 -0.741156
      CHANNELS 3 Zrotation Xrotation Yrotation
      JOINT Neck
      {
        OFFSET -0.026702 8.005718 -0.582504
        CHANNELS 3 Zrotation Xrotation Yrotation
        JOINT Head
        {
          OFFSET 4.925211 12.581449 4.236661
          CHANNELS 3 Zrotation Xrotation Yrotation
          End Site
          {
            OFFSET 0 0 0
          }
        }
      }
      JOINT ShoulderLeft
      {
        OFFSET -11.500166 -1.814275 -11.834023
        CHANNELS 3 Zrotation Xrotation Yrotation
        JOINT ElbowLeft
        {
          OFFSET -7.136770 -24.537637 -8.559575
          CHANNELS 3 Zrotation Xrotation Yrotation
          JOINT WristLeft
          {
            OFFSET 2.901496 -20.288946 -9.138044
            CHANNELS 3 Zrotation Xrotation Yrotation
            JOINT HandLeft
            {
              OFFSET 1.021358 -9.359474 -0.522084
              CHANNELS 3 Zrotation Xrotation Yrotation
              JOINT HandTipLeft
              {
                OFFSET 1.831192 -7.610371 -1.027290
                CHANNELS 3 Zrotation Xrotation Yrotation
                End Site
                {
                  OFFSET 0 0 0
                }
              }
              JOINT ThumbLeft
              {
                OFFSET -1.971582 -0.161692 -1.418699
                CHANNELS 3 Zrotation Xrotation Yrotation
                End Site
                {
                  OFFSET 0 0 0
                }
              }
            }
          }
        }
      }
      JOINT ShoulderRight
      {
        OFFSET 11.492386 -4.322628 11.225517
        CHANNELS 3 Zrotation Xrotation Yrotation
        JOINT ElbowRight
        {
          OFFSET 2.257588 -26.403509 2.998701
          CHANNELS 3 Zrotation Xrotation Yrotation
          JOINT WristRight
          {
            OFFSET 4.802690 -25.997783 -0.491471
            CHANNELS 3 Zrotation Xrotation Yrotation
            JOINT HandRight
            {
              OFFSET 2.487717 -11.661390 0.975655
              CHANNELS 3 Zrotation Xrotation Yrotation
              JOINT HandTipRight
              {
                OFFSET 2.540892 -4.335480 -2.934635
                CHANNELS 3 Zrotation Xrotation Yrotation
                End Site
                {
                  OFFSET 0 0 0
                }
              }
              JOINT ThumbRight
              {
                OFFSET -1.177375 -1.638344 -5.853372
                CHANNELS 3 Zrotation Xrotation Yrotation
                End Site
                {
                  OFFSET 0 0 0
                }
              }
            }
          }
        }
      }
    }
  }
  JOINT HipLeft
  {
    OFFSET -4.794525 1.845153 -7.984860
    CHANNELS 3 Zrotation Xrotation Yrotation
    JOINT KneeLeft
    {
      OFFSET -11.528254 -34.192288 -3.503661
      CHANNELS 3 Zrotation Xrotation Yrotation
      JOINT AnkleLeft
      {
        OFFSET -8.200716 -36.809549 4.206858
        CHANNELS 3 Zrotation Xrotation Yrotation
        JOINT FootLeft
        {
          OFFSET 1.319495 -7.767937 -6.481654
          CHANNELS 3 Zrotation Xrotation Yrotation
          End Site
          {
            OFFSET 0 0 0
          }
        }
      }
    }
  }
  JOINT HipRight
  {
    OFFSET 5.750966 0.174869 0.707457
    CHANNELS 3 Zrotation Xrotation Yrotation
    JOINT KneeRight
    {
      OFFSET -3.613995 -37.026856 0.219242
      CHANNELS 3 Zrotation Xrotation Yrotation
      JOINT AnkleRight
      {
        OFFSET -7.561475 -36.238410 8.847948
        CHANNELS 3 Zrotation Xrotation Yrotation
        JOINT FootRight
        {
          OFFSET 4.080627 -6.233463 -7.387562
          CHANNELS 3 Zrotation Xrotation Yrotation
          End Site
          {
            OFFSET 0 0 0
          }
        }
      }
    }
  }
}
MOTION
Frames: 9
Frame Time: 0.033333
-44.739179 86.874514 345.501432 -0.780806 3.980663 -52.909032 -0.289146 -0.746269 52.885940 -0.117951 -0.096909 -0.094630 -1.349737 -4.708485 1.358062 0.000000 0.000000 0.000000 24.085505 41.373636 -26.877778 72.622075 -19.221583 31.669766 44.667425 -25.150601 60.750325 -15.475242 30.449861 -13.140913 0.000000 0.000000 0.000000 0.000000 0.000000 0.000000 26.386816 62.338695 -5.456979 -7.188765 14.432007 0.614624 -115.147289 78.151046 -162.955090 -84.749899 21.829330 -87.368468 0.000000 0.000000 0.000000 0.000000 0.000000 0.000000 7.305820 -0.176647 53.363606 -5.346920 1.962005 -0.392716 4.935400 3.915227 -1.738732 0.000000 0.000000 0.000000 3.647532 -1.775985 52.992721 -1.162870 2.220257 -0.726625 -10.798933 -19.937607 1.463328 0.000000 0.000000 0.000000
-44.715002 86.989240 345.482781 -0.750947 4.090686 -53.117342 -0.295113 -0.720923 53.096367 -0.114178 -0.070213 -0.092456 -1.322601 -4.374636 1.145861 0.000000 0.000000 0.000000 22.534732 42.765144 -26.416530 75.508691 -19.679913 33.606553 33.666835 -24.488605 54.216795 -12.077292 25.683107 -13.071204 0.000000 0.000000 0.000000 0.000000 0.000000 0.000000 26.433140 61.444817 -5.277125 -11.542355 7.873984 -2.356175 -172.314864 37.268315 159.684577 -164.786706 -41.970680 -168.286124 0.000000 0.000000 0.000000 0.000000 0.000000 0.000000 7.367000 -0.200028 53.564817 -5.465811 1.857392 -0.373380 17.362394 9.787595 -11.328595 0.000000 0.000000 0.000000 3.724199 -1.852527 53.204394 -1.105876 2.187541 -0.707274 -10.406225 -19.242201 1.499478 0.000000 0.000000 0.000000
-44.710260 87.081535 345.465992 -0.769513 4.189884 -53.563854 -0.313348 -0.685403 53.545339 -0.107549 -0.035430 -0.091935 -1.088959 -4.176725 0.940187 0.000000 0.000000 0.000000 20.553191 43.423879 -25.308526 79.788431 -19.699119 34.761077 24.477464 -17.635571 45.502280 -14.962584 18.013335 -8.750137 0.000000 0.000000 0.000000 0.000000 0.000000 0.000000 26.696934 60.273227 -5.112358 -15.723308 2.144707 -5.345561 -179.623211 1.206022 153.837017 -178.309031 11.286604 166.591430 0.000000 0.000000 0.000000 0.000000 0.000000 0.000000 7.474960 -0.182731 54.017218 -5.506655 1.810542 -0.365295 25.069242 12.769435 -17.474917 0.000000 0.000000 0.000000 3.829438 -1.867303 53.654434 -1.134612 2.148385 -0.705857 -10.427980 -19.095078 1.684349 0.000000 0.000000 0.000000
-44.699297 87.178248 345.470914 -0.807381 4.268110 -53.995199 -0.327321 -0.662024 53.978549 -0.102488 -0.011008 -0.092695 -0.895851 -4.073917 0.807281 0.000000 0.000000 0.000000 20.162507 42.835235 -24.802279 81.029321 -17.699663 32.749158 20.828671 -22.219407 50.935942 -9.773635 22.303980 -12.414544 0.000000 0.000000 0.000000 0.000000 0.000000 0.000000 27.035363 58.896577 -4.932002 -19.215508 -1.509465 -7.778890 -170.356369 -25.049101 166.164964 -164.223540 44.225688 169.161150 0.000000 0.000000 0.000000 0.000000 0.000000 0.000000 7.544466 -0.124700 54.440357 -5.567122 1.728179 -0.351036 28.811688 13.997915 -20.480027 0.000000 0.000000 0.000000 3.928967 -1.853653 54.088871 -1.190407 2.186360 -0.726002 -10.420037 -19.136369 1.771534 0.000000 0.000000 0.000000
-44.675288 87.307419 345.490962 -0.836047 4.319931 -54.411495 -0.335911 -0.644303 54.396347 -0.104187 0.005320 -0.093809 -0.888299 -3.853181 0.695760 0.000000 0.000000 0.000000 19.574201 42.841274 -24.390326 79.377648 -15.426627 30.278995 20.617125 -24.581234 53.343939 -8.732990 22.772583 -12.859985 0.000000 0.000000 0.000000 0.000000 0.000000 0.000000 27.219246 57.524929 -4.691969 -21.296383 -2.859009 -9.083880 -150.027305 -35.308643 -168.895111 -145.340339 60.156706 174.165617 0.000000 0.000000 0.000000 0.000000 0.000000 0.000000 7.549031 -0.042015 54.832320 -5.603869 1.625180 -0.329578 28.766850 14.008151 -20.427951 0.000000 0.000000 0.000000 4.360837 -1.015424 54.503435 -2.135624 2.026623 -0.739252 -10.540376 -19.436878 1.783815 0.000000 0.000000 0.000000
-44.663903 87.486062 345.530766 -0.912334 4.387414 -54.762619 -0.341361 -0.632546 54.749198 -0.113826 0.016281 -0.098055 -0.799504 -3.829545 0.656050 0.000000 0.000000 0.000000 21.174055 41.738833 -25.014640 78.279741 -13.198253 27.758982 21.103077 -27.872091 58.614983 -6.556133 23.079105 -14.347318 0.000000 0.000000 0.000000 0.000000 0.000000 0.000000 27.240884 56.590376 -4.436393 -21.439434 -0.552806 -8.812640 -106.000350 -33.642394 -113.241107 -24.774465 79.344211 90.427616 0.000000 0.000000 0.000000 0.000000 0.000000 0.000000 7.592861 0.102588 55.146778 -5.643638 1.515553 -0.299025 25.150994 13.529960 -17.449998 0.000000 0.000000 0.000000 4.496237 -0.815919 54.852656 -2.355967 1.995494 -0.760692 -10.760100 -19.944679 1.745002 0.000000 0.000000 0.000000
-44.649032 87.688915 345.598332 -0.989152 4.421677 -54.949761 -0.358207 -0.626071 54.937125 -0.128087 0.015656 -0.103351 -0.685046 -3.755830 0.613493 0.000000 0.000000 0.000000 23.483062 40.887880 -26.198044 73.686231 -11.206156 25.432064 29.440931 -30.460059 65.460324 -7.678210 23.113435 -14.376805 0.000000 0.000000 0.000000 0.000000 0.000000 0.000000 27.197270 55.847364 -4.200054 -21.399827 2.481169 -8.342948 -119.335939 -31.551849 -131.079033 -94.649302 74.389115 158.120033 0.000000 0.000000 0.000000 0.000000 0.000000 0.000000 7.564348 0.287498 55.272724 -5.714623 1.377877 -0.259919 17.348677 11.139030 -11.102649 0.000000 0.000000 0.000000 4.546698 -0.603210 55.030781 -2.528681 1.880661 -0.767145 -11.271773 -20.647327 1.819876 0.000000 0.000000 0.000000
-44.647307 87.888981 345.655048 -1.074472 4.461628 -55.133459 -0.346017 -0.619994 55.122704 -0.134612 0.004107 -0.107590 -0.745704 -3.607145 0.594953 0.000000 0.000000 0.000000 24.309836 40.701866 -26.633837 72.469461 -8.950500 23.601247 27.762385 -27.450735 62.966780 -11.241429 16.307306 -10.548080 0.000000 0.000000 0.000000 0.000000 0.000000 0.000000 27.128943 55.219747 -3.998211 -21.019002 5.284260 -7.714723 -124.115206 -29.074640 -137.731633 -116.978987 68.151893 -179.785266 0.000000 0.000000 0.000000 0.000000 0.000000 0.000000 7.601633 0.465897 55.412115 -5.813510 1.282942 -0.230504 4.721621 4.828408 -1.239514 0.000000 0.000000 0.000000 4.588166 -0.399227 55.204819 -2.678263 1.747725 -0.770511 -11.703379 -21.300735 1.810800 0.000000 0.000000 0.000000
-44.655469 88.104855 345.705097 -1.162778 4.505767 -55.286817 -0.310049 -0.626840 55.277894 -0.135114 -0.018180 -0.111278 -0.813121 -3.304146 0.533656 0.000000 0.000000 0.000000 24.812123 40.497811 -26.837382 72.369890 -8.422036 23.105771 21.450080 -26.135370 58.649662 -10.304965 8.943876 -8.845249 0.000000 0.000000 0.000000 0.000000 0.000000 0.000000 26.944271 54.720604 -3.791813 -21.721259 3.782331 -8.190115 -100.518845 -37.522711 -109.123509 -75.276523 84.099273 142.182219 0.000000 0.000000 0.000000 0.000000 0.000000 0.000000 7.662361 0.640937 55.526063 -5.921603 1.215425 -0.206417 -2.311466 0.065599 3.976816 0.000000 0.000000 0.000000 4.627090 -0.196221 55.348289 -2.798989 1.590199 -0.764100 -12.246138 -22.000639 1.827714 0.000000 0.000000 0.000000
